<svg width="266" height="73" viewBox="0 0 266 73" fill="none" xmlns="http://www.w3.org/2000/svg">
<path d="M107.446 29.5845V57.9067H101.765V45.8556H89.633V57.9067H83.9523V29.5845H89.633V41.2299H101.765V29.5845H107.446Z" fill="white"/>
<path d="M129.105 43.3804C130.701 43.678 132.013 44.476 133.041 45.7744C134.069 47.0729 134.583 48.5607 134.583 50.2378C134.583 51.7527 134.205 53.0917 133.447 54.2549C132.717 55.391 131.648 56.2837 130.242 56.9329C128.835 57.5821 127.171 57.9067 125.251 57.9067H113.037V29.5845H124.723C126.644 29.5845 128.294 29.8956 129.674 30.5178C131.08 31.1399 132.135 32.0056 132.838 33.1146C133.569 34.2237 133.934 35.4816 133.934 36.8882C133.934 38.5383 133.488 39.9179 132.595 41.027C131.729 42.1361 130.566 42.9206 129.105 43.3804ZM118.718 41.2705H123.912C125.264 41.2705 126.306 40.9729 127.036 40.3778C127.766 39.7556 128.132 38.8765 128.132 37.7403C128.132 36.6042 127.766 35.725 127.036 35.1029C126.306 34.4807 125.264 34.1696 123.912 34.1696H118.718V41.2705ZM124.439 53.281C125.819 53.281 126.887 52.9564 127.645 52.3072C128.429 51.658 128.821 50.7383 128.821 49.548C128.821 48.3307 128.416 47.384 127.604 46.7077C126.793 46.0044 125.697 45.6527 124.317 45.6527H118.718V53.281H124.439ZM137.65 46.586C137.65 44.3137 138.096 42.2984 138.989 40.5401C139.909 38.7818 141.139 37.4292 142.681 36.4825C144.25 35.5357 145.995 35.0623 147.916 35.0623C149.593 35.0623 151.054 35.4004 152.298 36.0767C153.569 36.753 154.584 37.6051 155.341 38.633V35.4275H161.062V57.9067H155.341V54.6201C154.611 55.675 153.596 56.5542 152.298 57.2575C151.027 57.9338 149.552 58.2719 147.875 58.2719C145.982 58.2719 144.25 57.785 142.681 56.8112C141.139 55.8373 139.909 54.4713 138.989 52.713C138.096 50.9276 137.65 48.8853 137.65 46.586ZM155.341 46.6671C155.341 45.2875 155.071 44.1108 154.53 43.137C153.989 42.1361 153.258 41.3787 152.339 40.8647C151.419 40.3237 150.431 40.0532 149.376 40.0532C148.321 40.0532 147.348 40.3102 146.455 40.8241C145.562 41.3381 144.832 42.0955 144.264 43.0964C143.723 44.0702 143.452 45.2334 143.452 46.586C143.452 47.9385 143.723 49.1287 144.264 50.1567C144.832 51.1576 145.562 51.9285 146.455 52.4695C147.375 53.0105 148.349 53.281 149.376 53.281C150.431 53.281 151.419 53.0241 152.339 52.5101C153.258 51.9691 153.989 51.2117 154.53 50.2378C155.071 49.2369 155.341 48.0467 155.341 46.6671ZM179.068 35.1029C181.746 35.1029 183.91 35.955 185.56 37.6592C187.21 39.3363 188.035 41.6898 188.035 44.7194V57.9067H182.354V45.4904C182.354 43.705 181.908 42.339 181.015 41.3922C180.122 40.4184 178.905 39.9314 177.363 39.9314C175.794 39.9314 174.55 40.4184 173.63 41.3922C172.738 42.339 172.291 43.705 172.291 45.4904V57.9067H166.611V35.4275H172.291V38.2272C173.049 37.2534 174.009 36.496 175.172 35.955C176.362 35.3869 177.661 35.1029 179.068 35.1029ZM206.746 57.9067L199.118 48.3307V57.9067H193.437V27.8803H199.118V44.9629L206.665 35.4275H214.05L204.149 46.7077L214.131 57.9067H206.746Z" fill="#5CE1E6"/>
<path d="M36.0678 0C28.9343 -8.50666e-08 21.9609 2.11534 16.0296 6.07852C10.0983 10.0417 5.47539 15.6747 2.7455 22.2652C0.0156126 28.8558 -0.698651 36.1078 0.693031 43.1043C2.08471 50.1007 5.51984 56.5274 10.564 61.5716C15.6082 66.6157 22.0348 70.0509 29.0313 71.4426C36.0278 72.8342 43.2798 72.12 49.8703 69.3901C56.4609 66.6602 62.0939 62.0373 66.0571 56.106C70.0202 50.1747 72.1356 43.2013 72.1356 36.0678L54.1017 36.0678C54.1017 39.6346 53.044 43.1212 51.0624 46.0869C49.0808 49.0526 46.2643 51.364 42.9691 52.7289C39.6738 54.0939 36.0478 54.451 32.5495 53.7552C29.0513 53.0593 25.838 51.3418 23.3159 48.8197C20.7938 46.2976 19.0763 43.0843 18.3804 39.586C17.6846 36.0878 18.0417 32.4618 19.4066 29.1665C20.7716 25.8713 23.083 23.0547 26.0487 21.0732C29.0144 19.0916 32.501 18.0339 36.0678 18.0339V0Z" fill="white"/>
<path d="M36.0678 0C31.3313 -5.64821e-08 26.6412 0.932921 22.2652 2.7455C17.8893 4.55807 13.9132 7.21481 10.564 10.564C7.21481 13.9132 4.55807 17.8893 2.7455 22.2653C0.93292 26.6412 -7.1519e-07 31.3313 0 36.0678H18.0339C18.0339 33.6996 18.5004 31.3545 19.4066 29.1665C20.3129 26.9785 21.6413 24.9905 23.3159 23.3159C24.9905 21.6413 26.9785 20.3129 29.1665 19.4066C31.3545 18.5004 33.6996 18.0339 36.0678 18.0339V0Z" fill="#5CE1E6"/>
<circle cx="36.0678" cy="36.0678" r="11.2712" fill="#5CE1E6"/>
<path d="M47.339 36.0678C47.339 34.5877 47.0474 33.122 46.481 31.7545C45.9146 30.387 45.0843 29.1445 44.0377 28.0979C42.9911 27.0513 41.7486 26.221 40.3811 25.6546C39.0136 25.0882 37.5479 24.7966 36.0678 24.7966C34.5876 24.7966 33.122 25.0882 31.7545 25.6546C30.387 26.221 29.1445 27.0513 28.0979 28.0979C27.0512 29.1445 26.221 30.387 25.6546 31.7545C25.0881 33.122 24.7966 34.5877 24.7966 36.0678L36.0678 36.0678H47.339Z" fill="white"/>
</svg>
